P3
100 50
255
0 0 0 0 0 0 0 0 0 0 0 0 0 0 0 0 0 0 0 0 0 0 0 0 0 0 0 0 0 0 0 0 0 0 0
0 0 0 0 0 0 0 0 0 0 0 0 0 0 0 0 0 0 0 0 0 0 0 0 0 0 0 0 0 0 0 0 0 0 0
0 0 0 0 0 0 0 0 0 0 0 0 0 0 0 0 0 0 0 0 0 0 0 0 0 0 0 0 0 0 0 0 0 0 0
0 0 0 0 0 0 0 0 0 0 0 0 0 0 0 0 0 0 0 0 0 0 0 0 0 0 0 0 0 0 0 0 0 0 0
0 0 0 0 0 0 0 0 0 0 0 0 0 0 0 0 0 0 0 0 0 0 0 0 0 0 0 0 0 0 0 0 0 0 0
0 0 0 0 0 0 0 0 0 0 0 0 0 0 0 0 0 0 0 0 0 0 0 0 0 0 0 0 0 0 0 0 0 0 0
0 0 0 0 0 0 0 0 0 0 0 0 0 0 0 0 0 0 0 0 0 0 0 0 0 0 0 0 0 0 0 0 0 0 0
0 0 0 0 0 0 0 0 0 0 0 0 0 0 0 0 0 0 0 0 0 0 0 0 0 0 0 0 0 0 0 0 0 0 0
0 0 0 0 0 0 0 0 0 0 0 0 0 0 0 0 0 0 0 0
0 0 0 0 0 0 0 0 0 0 0 0 0 0 0 0 0 0 0 0 0 0 0 0 0 0 0 0 0 0 0 0 0 0 0
0 0 0 0 0 0 0 0 0 0 0 0 0 0 0 0 0 0 0 0 0 0 0 0 0 0 0 0 0 0 0 0 0 0 0
0 0 0 0 0 0 0 0 0 0 0 0 0 0 0 0 0 0 0 0 0 0 0 0 0 0 0 0 0 0 0 0 0 0 0
0 0 0 0 0 0 0 0 0 0 0 0 0 0 0 0 0 0 0 0 0 0 0 0 0 0 0 0 0 0 0 0 0 0 0
0 0 0 0 0 0 0 0 0 0 0 0 0 0 0 0 0 0 0 0 0 0 0 0 0 0 0 0 0 0 0 0 0 0 0
0 0 0 0 0 0 0 0 0 0 0 0 0 0 0 0 0 0 0 0 0 0 0 0 0 0 0 0 0 0 0 0 0 0 0
0 0 0 0 0 0 0 0 0 0 0 0 0 0 0 0 0 0 0 0 0 0 0 0 0 0 0 0 0 0 0 0 0 0 0
0 0 0 0 0 0 0 0 0 0 0 0 0 0 0 0 0 0 0 0 0 0 0 0 0 0 0 0 0 0 0 0 0 0 0
0 0 0 0 0 0 0 0 0 0 0 0 0 0 0 0 0 0 0 0
0 0 0 0 0 0 0 0 0 0 0 0 0 0 0 0 0 0 0 0 0 0 0 0 0 0 0 0 0 0 0 0 0 0 0
0 0 0 0 0 0 0 0 0 0 0 0 0 0 0 0 0 0 0 0 0 0 0 0 0 0 0 0 0 0 0 0 0 0 0
0 0 0 0 0 0 0 0 0 0 0 0 0 0 0 0 0 0 0 0 0 0 0 0 0 0 0 0 0 0 0 0 0 0 0
0 0 0 0 0 0 0 0 0 0 0 0 0 0 0 0 0 0 0 0 0 0 0 0 0 0 0 0 0 0 0 0 0 0 0
0 0 0 0 0 0 0 0 0 0 0 0 0 0 0 0 0 0 0 0 0 0 0 0 0 0 0 0 0 0 0 0 0 0 0
0 0 0 0 0 0 0 0 0 0 0 0 0 0 0 0 0 0 0 0 0 0 0 0 0 0 0 0 0 0 0 0 0 0 0
0 0 0 0 0 0 0 0 0 0 0 0 0 0 0 0 0 0 0 0 0 0 0 0 0 0 0 0 0 0 0 0 0 0 0
0 0 0 0 0 0 0 0 0 0 0 0 0 0 0 0 0 0 0 0 0 0 0 0 0 0 0 0 0 0 0 0 0 0 0
0 0 0 0 0 0 0 0 0 0 0 0 0 0 0 0 0 0 0 0
0 0 0 0 0 0 0 0 0 0 0 0 0 0 0 0 0 0 0 0 0 0 0 0 0 0 0 0 0 0 0 0 0 0 0
0 0 0 0 0 0 0 0 0 0 0 0 0 0 0 0 0 0 0 0 0 0 0 0 0 0 0 0 0 0 0 0 0 0 0
0 0 0 0 0 0 0 0 0 0 0 0 0 0 0 0 0 0 0 0 0 0 0 0 0 0 0 0 0 0 0 0 0 0 0
0 0 0 0 0 0 0 0 0 0 0 0 0 0 0 0 0 0 0 0 0 0 0 0 0 0 0 0 0 0 0 0 0 0 0
0 0 0 0 0 0 0 0 0 0 0 0 0 0 0 0 0 0 0 0 0 0 0 0 0 0 0 0 0 0 0 0 0 0 0
0 0 0 0 0 0 0 0 0 0 0 0 0 0 0 0 0 0 0 0 0 0 0 0 0 0 0 0 0 0 0 0 0 0 0
0 0 0 0 0 0 0 0 0 0 0 0 0 0 0 0 0 0 0 0 0 0 0 0 0 0 0 0 0 0 0 0 0 0 0
0 0 0 0 0 0 0 0 0 0 0 0 0 0 0 0 0 0 0 0 0 0 0 0 0 0 0 0 0 0 0 0 0 0 0
0 0 0 0 0 0 0 0 0 0 0 0 0 0 0 0 0 0 0 0
0 0 0 0 0 0 0 0 0 0 0 0 0 0 0 0 0 0 0 0 0 0 0 0 0 0 0 0 0 0 0 0 0 0 0
0 0 0 0 0 0 0 0 0 0 0 0 0 0 0 0 0 0 0 0 0 0 0 0 0 0 0 0 0 0 0 0 0 0 0
0 0 0 0 0 0 0 0 0 0 0 0 0 0 0 0 0 0 0 0 0 0 0 0 0 0 0 0 0 0 0 0 0 0 0
0 0 0 0 0 0 0 0 0 0 0 0 0 0 0 0 0 0 0 0 0 0 0 0 0 0 0 0 0 0 0 0 0 0 0
0 0 0 0 0 0 0 0 0 0 0 0 0 0 0 0 0 0 0 0 0 0 0 0 0 0 0 0 0 0 0 0 0 0 0
0 0 0 0 0 0 0 0 0 0 0 0 0 0 0 0 0 0 0 0 0 0 0 0 0 0 0 0 0 0 0 0 0 0 0
0 0 0 0 0 0 0 0 0 0 0 0 0 0 0 0 0 0 0 0 0 0 0 0 0 0 0 0 0 0 0 0 0 0 0
0 0 0 0 0 0 0 0 0 0 0 0 0 0 0 0 0 0 0 0 0 0 0 0 0 0 0 0 0 0 0 0 0 0 0
0 0 0 0 0 0 0 0 0 0 0 0 0 0 0 0 0 0 0 0
0 0 0 0 0 0 0 0 0 0 0 0 0 0 0 0 0 0 0 0 0 0 0 0 0 0 0 0 0 0 0 0 0 0 0
0 0 0 0 0 0 0 0 0 0 0 0 0 0 0 0 0 0 0 0 0 0 0 0 0 0 0 0 0 0 0 0 0 0 0
0 0 0 0 0 0 0 0 0 0 0 0 0 0 0 0 0 0 0 0 0 0 0 0 0 0 0 0 0 0 0 0 0 0 0
0 0 0 0 0 0 0 0 0 0 0 0 0 0 0 0 0 0 0 0 0 0 0 0 0 0 0 0 0 0 0 0 0 0 0
0 0 0 0 0 0 0 0 0 0 0 0 0 0 0 0 0 0 0 0 0 0 0 0 0 0 0 0 0 0 0 0 0 0 0
0 0 0 0 0 0 0 0 0 0 0 0 0 0 0 0 0 0 0 0 0 0 0 0 0 0 0 0 0 0 0 0 0 0 0
0 0 0 0 0 0 0 0 0 0 0 0 0 0 0 0 0 0 0 0 0 0 0 0 0 0 0 0 0 0 0 0 0 0 0
0 0 0 0 0 0 0 0 0 0 0 0 0 0 0 0 0 0 0 0 0 0 0 0 0 0 0 0 0 0 0 0 0 0 0
0 0 0 0 0 0 0 0 0 0 0 0 0 0 0 0 0 0 0 0
0 0 0 0 0 0 0 0 0 0 0 0 0 0 0 0 0 0 0 0 0 0 0 0 0 0 0 0 0 0 0 0 0 0 0
0 0 0 0 0 0 0 0 0 0 0 0 0 0 0 0 0 0 0 0 0 0 0 0 0 0 0 0 0 0 0 0 0 0 0
0 0 0 0 0 0 0 0 0 0 0 0 0 0 0 0 0 0 0 0 0 0 0 0 0 0 0 0 0 0 0 0 0 0 0
0 0 0 0 0 0 0 0 0 0 0 0 0 0 0 0 0 0 0 0 0 0 0 0 0 0 0 0 0 0 0 0 0 0 0
0 0 0 0 0 0 0 0 0 0 0 0 0 0 0 0 0 0 0 0 0 0 0 0 0 0 0 0 0 0 0 0 0 0 0
0 0 0 0 0 0 0 0 0 0 0 0 0 0 0 0 0 0 0 0 0 0 0 0 0 0 0 0 0 0 0 0 0 0 0
0 0 0 0 0 0 0 0 0 0 0 0 0 0 0 0 0 0 0 0 0 0 0 0 0 0 0 0 0 0 0 0 0 0 0
0 0 0 0 0 0 0 0 0 0 0 0 0 0 0 0 0 0 0 0 0 0 0 0 0 0 0 0 0 0 0 0 0 0 0
0 0 0 0 0 0 0 0 0 0 0 0 0 0 0 0 0 0 0 0
0 0 0 0 0 0 0 0 0 0 0 0 0 0 0 0 0 0 0 0 0 0 0 0 0 0 0 0 0 0 0 0 0 0 0
0 0 0 0 0 0 0 0 0 0 0 0 0 0 0 0 0 0 0 0 0 0 0 0 0 0 0 0 0 0 0 0 0 0 0
0 0 0 0 0 0 0 0 0 0 0 0 0 0 0 0 0 0 0 0 0 0 0 0 0 0 0 0 0 0 0 0 0 0 0
0 0 0 0 0 0 0 0 0 0 0 0 0 0 0 0 0 0 0 0 0 0 0 0 0 0 0 0 0 0 0 0 0 0 0
0 0 0 0 0 0 0 0 0 0 0 0 0 0 0 0 0 0 0 0 0 0 0 0 0 0 0 0 0 0 0 0 0 0 0
0 0 0 0 0 0 0 0 0 0 0 0 0 0 0 0 0 0 0 0 0 0 0 0 0 0 0 0 0 0 0 0 0 0 0
0 0 0 0 0 0 0 0 0 0 0 0 0 0 0 0 0 0 0 0 0 0 0 0 0 0 0 0 0 0 0 0 0 0 0
0 0 0 0 0 0 0 0 0 0 0 0 0 0 0 0 0 0 0 0 0 0 0 0 0 0 0 0 0 0 0 0 0 0 0
0 0 0 0 0 0 0 0 0 0 0 0 0 0 0 0 0 0 0 0
0 0 0 0 0 0 0 0 0 0 0 0 0 0 0 0 0 0 0 0 0 0 0 0 0 0 0 0 0 0 0 0 0 0 0
0 0 0 0 0 0 0 0 0 0 0 0 0 0 0 0 0 0 0 0 0 0 0 0 0 0 0 0 0 0 0 0 0 0 0
0 0 0 0 0 0 0 0 0 0 0 0 0 0 0 0 0 0 0 0 0 0 0 0 0 0 0 0 0 0 0 0 0 0 0
0 0 0 0 0 0 0 0 0 0 0 0 0 0 0 145 145 145 140 140 140 133 133 133 122
122 122 0 0 0 0 0 0 0 0 0 0 0 0 0 0 0 0 0 0 0 0 0 0 0 0 0 0 0 0 0 0 0
0 0 0 0 0 0 0 0 0 0 0 0 0 0 0 0 0 0 0 0 0 0 0 0 0 0 0 0 0 0 0 0 0 0 0
0 0 0 0 0 0 0 0 0 0 0 0 0 0 0 0 0 0 0 0 0 0 0 0 0 0 0 0 0 0 0 0 0 0 0
0 0 0 0 0 0 0 0 0 0 0 0 0 0 0 0 0 0 0 0 0 0 0 0 0 0 0 0 0 0 0 0 0 0 0
0 0 0 0 0 0 0 0 0 0 0 0 0 0 0 0 0 0 0 0 0 0 0 0 0 0 0 0 0 0 0 0
0 0 0 0 0 0 0 0 0 0 0 0 0 0 0 0 0 0 0 0 0 0 0 0 0 0 0 0 0 0 0 0 0 0 0
0 0 0 0 0 0 0 0 0 0 0 0 0 0 0 0 0 0 0 0 0 0 0 0 0 0 0 0 0 0 0 0 0 0 0
0 0 0 0 0 0 0 0 0 0 0 0 0 0 0 0 0 0 0 0 0 0 0 0 0 0 0 0 0 0 0 0 0 0 0
0 0 0 172 172 172 173 173 173 171 171 171 167 167 167 162 162 162 156
156 156 149 149 149 141 141 141 132 132 132 121 121 121 109 109 109 92
92 92 0 0 0 0 0 0 0 0 0 0 0 0 0 0 0 0 0 0 0 0 0 0 0 0 0 0 0 0 0 0 0 0
0 0 0 0 0 0 0 0 0 0 0 0 0 0 0 0 0 0 0 0 0 0 0 0 0 0 0 0 0 0 0 0 0 0 0
0 0 0 0 0 0 0 0 0 0 0 0 0 0 0 0 0 0 0 0 0 0 0 0 0 0 0 0 0 0 0 0 0 0 0
0 0 0 0 0 0 0 0 0 0 0 0 0 0 0 0 0 0 0 0 0 0 0 0 0 0 0 0 0 0 0 0 0 0 0
0 0 0 0 0 0 0 0 0 0 0 0 0 0 0 0 0 0 0
0 0 0 0 0 0 0 0 0 0 0 0 0 0 0 0 0 0 0 0 0 0 0 0 0 0 0 0 0 0 0 0 0 0 0
0 0 0 0 0 0 0 0 0 0 0 0 0 0 0 0 0 0 0 0 0 0 0 0 0 0 0 0 0 0 0 0 0 0 0
0 0 0 0 0 0 0 0 0 0 0 0 0 0 0 0 0 0 0 0 0 0 0 0 0 0 0 0 0 0 0 0 184
184 184 186 186 186 185 185 185 182 182 182 178 178 178 173 173 173
168 168 168 161 161 161 155 155 155 147 147 147 139 139 139 130 130
130 120 120 120 108 108 108 94 94 94 75 75 75 0 0 0 0 0 0 0 0 0 0 0 0
0 0 0 0 0 0 0 0 0 0 0 0 0 0 0 0 0 0 0 0 0 0 0 0 0 0 0 0 0 0 0 0 0 0 0
0 0 0 0 0 0 0 0 0 0 0 0 0 0 0 0 0 0 0 0 0 0 0 0 0 0 0 0 0 0 0 0 0 0 0
0 0 0 0 0 0 0 0 0 0 0 0 0 0 0 0 0 0 0 0 0 0 0 0 0 0 0 0 0 0 0 0 0 0 0
0 0 0 0 0 0 0 0 0 0 0 0 0 0 0 0 0 0 0 0 0 0 0 0 0 0 0 0 0 0 0 0 0
0 0 0 0 0 0 0 0 0 0 0 0 0 0 0 0 0 0 0 0 0 0 0 0 0 0 0 0 0 0 0 0 0 0 0
0 0 0 0 0 0 0 0 0 0 0 0 0 0 0 0 0 0 0 0 0 0 0 0 0 0 0 0 0 0 0 0 0 0 0
0 0 0 0 0 0 0 0 0 0 0 0 0 0 0 0 0 0 0 0 0 0 0 0 0 0 184 184 184 193
193 193 194 194 194 192 192 192 189 189 189 186 186 186 181 181 181
176 176 176 170 170 170 164 164 164 157 157 157 150 150 150 142 142
142 134 134 134 124 124 124 114 114 114 103 103 103 89 89 89 73 73 73
0 0 0 0 0 0 0 0 0 0 0 0 0 0 0 0 0 0 0 0 0 0 0 0 0 0 0 0 0 0 0 0 0 0 0
0 0 0 0 0 0 0 0 0 0 0 0 0 0 0 0 0 0 0 0 0 0 0 0 0 0 0 0 0 0 0 0 0 0 0
0 0 0 0 0 0 0 0 0 0 0 0 0 0 0 0 0 0 0 0 0 0 0 0 0 0 0 0 0 0 0 0 0 0 0
0 0 0 0 0 0 0 0 0 0 0 0 0 0 0 0 0 0 0 0 0 0 0 0 0 0 0 0 0 0 0 0 0 0 0
0 0 0 0 0 0 0
0 0 0 0 0 0 0 0 0 0 0 0 0 0 0 0 0 0 0 0 0 0 0 0 0 0 0 0 0 0 0 0 0 0 0
0 0 0 0 0 0 0 0 0 0 0 0 0 0 0 0 0 0 0 0 0 0 0 0 0 0 0 0 0 0 0 0 0 0 0
0 0 0 0 0 0 0 0 0 0 0 0 0 0 0 0 0 0 0 0 0 0 0 192 192 192 198 198 198
199 199 199 197 197 197 195 195 195 191 191 191 187 187 187 182 182
182 177 177 177 171 171 171 165 165 165 159 159 159 152 152 152 144
144 144 136 136 136 127 127 127 117 117 117 107 107 107 95 95 95 82 82
82 65 65 65 40 40 40 0 0 0 0 0 0 0 0 0 0 0 0 0 0 0 0 0 0 0 0 0 0 0 0 0
0 0 0 0 0 0 0 0 0 0 0 0 0 0 0 0 0 0 0 0 0 0 0 0 0 0 0 0 0 0 0 0 0 0 0
0 0 0 0 0 0 0 0 0 0 0 0 0 0 0 0 0 0 0 0 0 0 0 0 0 0 0 0 0 0 0 0 0 0 0
0 0 0 0 0 0 0 0 0 0 0 0 0 0 0 0 0 0 0 0 0 0 0 0 0 0 0 0 0 0 0 0 0 0 0
0 0 0 0 0 0 0 0 0 0 0
0 0 0 0 0 0 0 0 0 0 0 0 0 0 0 0 0 0 0 0 0 0 0 0 0 0 0 0 0 0 0 0 0 0 0
0 0 0 0 0 0 0 0 0 0 0 0 0 0 0 0 0 0 0 0 0 0 0 0 0 0 0 0 0 0 0 0 0 0 0
0 0 0 0 0 0 0 0 0 0 0 0 0 0 0 0 0 0 0 0 194 194 194 201 201 201 202
202 202 201 201 201 199 199 199 196 196 196 192 192 192 187 187 187
183 183 183 177 177 177 172 172 172 165 165 165 159 159 159 152 152
152 144 144 144 136 136 136 128 128 128 119 119 119 109 109 109 98 98
98 86 86 86 72 72 72 55 55 55 28 0 0 0 0 0 0 0 0 0 0 0 0 0 0 0 0 0 0 0
0 0 0 0 0 0 0 0 0 0 0 0 0 0 0 0 0 0 0 0 0 0 0 0 0 0 0 0 0 0 0 0 0 0 0
0 0 0 0 0 0 0 0 0 0 0 0 0 0 0 0 0 0 0 0 0 0 0 0 0 0 0 0 0 0 0 0 0 0 0
0 0 0 0 0 0 0 0 0 0 0 0 0 0 0 0 0 0 0 0 0 0 0 0 0 0 0 0 0 0 0 0 0 0 0
0 0 0 0 0 0 0 0 0 0 0 0 0 0 0 0
0 0 0 0 0 0 0 0 0 0 0 0 0 0 0 0 0 0 0 0 0 0 0 0 0 0 0 0 0 0 0 0 0 0 0
0 0 0 0 0 0 0 0 0 0 0 0 0 0 0 0 0 0 0 0 0 0 0 0 0 0 0 0 0 0 0 0 0 0 0
0 0 0 0 0 0 0 0 0 0 0 0 0 0 0 0 0 192 192 192 202 202 202 204 204 204
203 203 203 201 201 201 199 199 199 195 195 195 191 191 191 187 187
187 182 182 182 176 176 176 171 171 171 165 165 165 158 158 158 151
151 151 144 144 144 136 136 136 128 128 128 119 119 119 109 109 109 99
99 99 88 88 88 75 75 75 60 0 0 42 0 0 26 0 0 0 0 0 0 0 0 0 0 0 0 0 0 0
0 0 0 0 0 0 0 0 0 0 0 0 0 0 0 0 0 0 0 0 0 0 0 0 0 0 0 0 0 0 0 0 0 0 0
0 0 0 0 0 0 0 0 0 0 0 0 0 0 0 0 0 0 0 0 0 0 0 0 0 0 0 0 0 0 0 0 0 0 0
0 0 0 0 0 0 0 0 0 0 0 0 0 0 0 0 0 0 0 0 0 0 0 0 0 0 0 0 0 0 0 0 0 0 0
0 0 0 0 0 0 0 0 0 0 0 0 0 0 0 0 0
0 0 0 0 0 0 0 0 0 0 0 0 0 0 0 0 0 0 0 0 0 0 0 0 0 0 0 0 0 0 0 0 0 0 0
0 0 0 0 0 0 0 0 0 0 0 0 0 0 0 0 0 0 0 0 0 0 0 0 0 0 0 0 0 0 0 0 0 0 0
0 0 0 0 0 0 0 0 0 0 0 0 0 0 0 0 0 201 201 201 204 204 204 204 204 204
203 203 203 201 201 201 198 198 198 194 194 194 190 190 190 185 185
185 180 180 180 175 175 175 169 169 169 163 163 163 157 157 157 150
150 150 143 143 143 135 135 135 127 127 127 118 118 118 109 109 109 99
99 99 88 88 88 76 0 0 63 0 0 47 0 0 27 0 0 0 0 0 0 0 0 0 0 0 0 0 0 0 0
0 0 0 0 0 0 0 0 0 0 0 0 0 0 0 0 0 0 0 0 0 0 0 0 0 0 0 0 0 0 0 0 0 0 0
0 0 0 0 0 0 0 0 0 0 0 0 0 0 0 0 0 0 0 0 0 0 0 0 0 0 0 0 0 0 0 0 0 0 0
0 0 0 0 0 0 0 0 0 0 0 0 0 0 0 0 0 0 0 0 0 0 0 0 0 0 0 0 0 0 0 0 0 0 0
0 0 0 0 0 0 0 0 0 0 0 0 0 0 0 0
0 0 0 0 0 0 0 0 0 0 0 0 0 0 0 0 0 0 0 0 0 0 0 0 0 0 0 0 0 0 0 0 0 0 0
0 0 0 0 0 0 0 0 0 0 0 0 0 0 0 0 0 0 0 0 0 0 0 0 0 0 0 0 0 0 0 0 0 0 0
0 0 0 0 0 0 0 0 0 0 0 0 0 0 196 196 196 203 203 203 204 204 204 204
204 204 202 202 202 199 199 199 196 196 196 192 192 192 188 188 188
183 183 183 178 178 178 173 173 173 167 167 167 161 161 161 155 155
155 148 148 148 141 141 141 133 133 133 125 125 125 117 117 117 108
108 108 98 98 98 88 0 0 76 0 0 64 0 0 49 0 0 32 0 0 26 0 0 0 0 0 0 0 0
0 0 0 0 0 0 0 0 0 0 0 0 0 0 0 0 0 0 0 0 0 0 0 0 0 0 0 0 0 0 0 0 0 0 0
0 0 0 0 0 0 0 0 0 0 0 0 0 0 0 0 0 0 0 0 0 0 0 0 0 0 0 0 0 0 0 0 0 0 0
0 0 0 0 0 0 0 0 0 0 0 0 0 0 0 0 0 0 0 0 0 0 0 0 0 0 0 0 0 0 0 0 0 0 0
0 0 0 0 0 0 0 0 0 0 0 0 0 0 0 0 0 0 0 0 0
43 43 43 43 0 0 43 43 43 43 0 0 43 43 43 43 0 0 43 43 43 44 0 0 44 44
44 44 0 0 44 44 44 44 0 0 44 44 44 44 0 0 44 44 44 44 0 0 44 44 44 44
44 44 44 0 0 44 44 44 44 0 0 44 44 44 44 0 0 44 44 44 44 0 0 44 44 44
45 0 0 181 181 181 199 199 199 203 203 203 203 203 203 202 202 202 200
200 200 197 197 197 194 194 194 190 190 190 186 186 186 181 181 181
176 176 176 171 171 171 165 165 165 159 159 159 153 153 153 146 146
146 139 139 139 131 131 131 123 123 123 115 115 115 106 106 106 97 0 0
87 0 0 76 0 0 63 0 0 50 0 0 34 0 0 26 0 0 45 45 45 45 0 0 45 45 45 44
0 0 44 44 44 44 44 44 44 0 0 44 44 44 44 0 0 44 44 44 44 0 0 44 44 44
44 0 0 44 44 44 44 0 0 44 44 44 44 0 0 44 44 44 44 0 0 44 44 44 44 0 0
44 44 44 43 0 0 43 43 43 43 0 0 43 43 43 43 0 0 43 0 0 43 43 43 43 0 0
43 43 43 43 0 0 43 43 43 43 0 0 43 43 43 43 0 0 42 42 42 42 0 0 42 42
42 42 0 0 42 42 42 42 0 0 42 42 42 42 0 0
58 0 0 58 0 0 58 58 58 58 58 58 58 0 0 58 0 0 59 59 59 59 59 59 59 0 0
59 0 0 59 59 59 59 59 59 59 0 0 59 0 0 59 59 59 59 59 59 59 0 0 59 0 0
60 60 60 60 60 60 60 0 0 60 0 0 60 60 60 60 60 60 60 0 0 60 0 0 60 60
60 192 192 192 199 199 199 201 201 201 201 201 201 200 200 200 198 198
198 195 195 195 191 191 191 194 194 194 199 199 199 180 180 180 173
173 173 168 168 168 162 162 162 156 156 156 150 150 150 143 143 143
136 136 136 129 129 129 121 121 121 113 113 113 104 0 0 95 0 0 85 0 0
74 0 0 62 0 0 49 0 0 34 0 0 26 0 0 26 0 0 59 0 0 59 59 59 59 59 59 59
0 0 59 0 0 59 59 59 59 59 59 59 0 0 59 0 0 58 58 58 58 58 58 58 0 0 58
0 0 58 58 58 58 58 58 58 0 0 58 0 0 58 58 58 57 57 57 57 0 0 57 0 0 57
57 57 57 57 57 57 0 0 57 0 0 57 57 57 56 56 56 56 0 0 56 0 0 56 56 56
56 56 56 56 0 0 56 0 0 56 56 56 55 55 55 55 0 0 55 0 0 55 55 55 55 55
55 55 0 0 55 0 0 54 54 54 54 54 54
72 0 0 72 0 0 72 0 0 72 72 72 73 73 73 73 73 73 73 0 0 73 0 0 73 0 0
73 73 73 73 73 73 73 73 73 73 0 0 73 0 0 73 0 0 74 74 74 74 74 74 74
74 74 74 0 0 74 0 0 74 0 0 74 74 74 74 74 74 74 74 74 74 0 0 74 0 0 74
0 0 193 193 193 198 198 198 199 199 199 199 199 199 197 197 197 195
195 195 192 192 192 190 190 190 231 231 231 236 236 236 178 178 178
170 170 170 165 165 165 159 159 159 153 153 153 147 147 147 140 140
140 133 133 133 126 126 126 118 118 118 110 0 0 101 0 0 92 0 0 82 0 0
72 0 0 60 0 0 48 0 0 33 0 0 26 0 0 26 0 0 72 72 72 72 72 72 72 0 0 72
0 0 72 0 0 72 72 72 71 71 71 71 71 71 71 0 0 71 0 0 71 0 0 71 71 71 70
70 70 70 0 0 70 0 0 70 0 0 70 70 70 70 70 70 70 70 70 69 0 0 69 0 0 69
0 0 69 69 69 69 69 69 68 68 68 68 0 0 68 0 0 68 0 0 68 68 68 68 68 68
67 67 67 67 0 0 67 0 0 67 0 0 67 67 67 66 66 66 66 66 66 66 0 0 66 0 0
66 0 0 66 66 66 65 65 65 65 65 65
85 0 0 85 0 0 85 0 0 86 0 0 86 86 86 86 86 86 86 86 86 86 86 86 86 0 0
86 0 0 86 0 0 86 86 86 86 86 86 86 86 86 86 86 86 86 0 0 86 0 0 86 0 0
86 0 0 87 87 87 87 87 87 87 87 87 87 87 87 87 0 0 87 0 0 87 0 0 176
176 176 191 191 191 195 195 195 196 196 196 195 195 195 194 194 194
191 191 191 188 188 188 186 186 186 199 199 199 188 188 188 172 172
172 166 166 166 161 161 161 155 155 155 149 149 149 143 143 143 137
137 137 130 130 130 122 122 122 115 0 0 107 0 0 98 0 0 89 0 0 79 0 0
69 0 0 58 0 0 45 0 0 31 0 0 26 0 0 26 0 0 83 0 0 83 83 83 83 83 83 83
83 83 83 83 83 83 0 0 82 0 0 82 0 0 82 82 82 82 82 82 82 82 82 81 81
81 81 0 0 81 0 0 81 0 0 81 0 0 80 80 80 80 80 80 80 80 80 80 80 80 80
0 0 79 0 0 79 0 0 79 0 0 79 79 79 78 78 78 78 78 78 78 78 78 78 0 0 78
0 0 77 0 0 77 0 0 77 77 77 77 77 77 76 76 76 76 0 0 76 0 0 76 0 0 76 0
0 75 75 75 75 75 75 75 75 75 75 75 75
97 0 0 97 0 0 97 97 97 97 97 97 97 97 97 97 97 97 98 98 98 98 0 0 98 0
0 98 0 0 98 0 0 98 0 0 98 98 98 98 98 98 98 98 98 98 98 98 98 0 0 98 0
0 98 0 0 98 0 0 98 0 0 98 98 98 98 98 98 98 98 98 98 98 98 98 98 98
178 178 178 189 189 189 192 192 192 193 193 193 192 192 192 190 190
190 187 187 187 184 184 184 181 181 181 177 177 177 173 173 173 168
168 168 163 163 163 157 157 157 152 152 152 146 146 146 139 139 139
133 133 133 126 126 126 119 0 0 111 0 0 103 0 0 95 0 0 86 0 0 76 0 0
66 0 0 55 0 0 42 0 0 29 0 0 26 0 0 26 0 0 26 0 0 93 0 0 93 0 0 92 92
92 92 92 92 92 92 92 92 92 92 92 0 0 91 0 0 91 0 0 91 0 0 91 0 0 90 90
90 90 90 90 90 90 90 90 90 90 89 89 89 89 0 0 89 0 0 89 0 0 88 0 0 88
0 0 88 88 88 88 88 88 87 87 87 87 87 87 87 87 87 87 0 0 86 0 0 86 0 0
86 0 0 86 86 86 85 85 85 85 85 85 85 85 85 85 85 85 84 0 0 84 0 0 84 0
0 84 0 0 83 0 0 83 83 83 83 83 83
108 0 0 108 0 0 108 0 0 108 0 0 108 108 108 108 108 108 108 108 108
108 108 108 108 108 108 108 108 108 108 0 0 108 0 0 108 0 0 108 0 0
108 0 0 108 0 0 108 108 108 108 108 108 108 108 108 108 108 108 107
107 107 107 0 0 107 0 0 107 0 0 107 0 0 107 0 0 176 176 176 185 185
185 188 188 188 188 188 188 188 188 188 186 186 186 183 183 183 180
180 180 176 176 176 172 172 172 168 168 168 163 163 163 158 158 158
153 153 153 147 147 147 141 141 141 135 135 135 129 129 129 122 0 0
115 0 0 107 0 0 99 0 0 91 0 0 82 0 0 72 0 0 62 0 0 51 0 0 39 0 0 26 0
0 26 0 0 26 0 0 26 0 0 101 0 0 101 0 0 101 0 0 100 100 100 100 100 100
100 100 100 100 100 100 99 99 99 99 99 99 99 0 0 99 0 0 98 0 0 98 0 0
98 0 0 98 0 0 97 97 97 97 97 97 97 97 97 97 97 97 96 96 96 96 96 96 96
0 0 95 0 0 95 0 0 95 0 0 95 0 0 94 94 94 94 94 94 94 94 94 93 93 93 93
93 93 93 93 93 93 0 0 92 0 0 92 0 0 92 0 0 92 0 0 91 0 0 91 91 91 91
91 91 90 90 90 90 90 90
117 117 117 117 117 117 117 117 117 117 0 0 117 0 0 117 0 0 117 0 0
117 0 0 117 0 0 117 0 0 117 117 117 117 117 117 117 117 117 116 116
116 116 116 116 116 116 116 116 116 116 116 0 0 116 0 0 116 0 0 116 0
0 116 0 0 116 0 0 116 116 116 115 115 115 115 115 115 173 173 173 181
181 181 183 183 183 184 184 184 183 183 183 181 181 181 179 179 179
175 175 175 172 172 172 168 168 168 164 164 164 159 159 159 154 154
154 149 149 149 143 143 143 137 137 137 131 131 131 124 0 0 117 0 0
110 0 0 103 0 0 95 0 0 86 0 0 77 0 0 68 0 0 58 0 0 47 0 0 35 0 0 26 0
0 26 0 0 26 0 0 26 0 0 108 0 0 108 0 0 108 0 0 108 0 0 107 0 0 107 107
107 107 107 107 106 106 106 106 106 106 106 106 106 106 106 106 105
105 105 105 0 0 105 0 0 104 0 0 104 0 0 104 0 0 104 0 0 103 0 0 103
103 103 103 103 103 102 102 102 102 102 102 102 102 102 102 102 102
101 0 0 101 0 0 101 0 0 100 0 0 100 0 0 100 0 0 99 0 0 99 99 99 99 99
99 99 99 99 98 98 98 98 98 98 98 98 98 97 97 97 97 0 0 97 0 0 97 0 0
125 0 0 125 0 0 125 0 0 125 0 0 125 125 125 125 125 125 125 125 125
125 125 125 124 124 124 124 124 124 124 124 124 124 124 124 124 0 0
124 0 0 124 0 0 124 0 0 124 0 0 124 0 0 123 0 0 123 0 0 123 123 123
123 123 123 123 123 123 123 123 123 122 122 122 122 122 122 167 167
167 176 176 176 178 178 178 179 179 179 178 178 178 176 176 176 174
174 174 170 170 170 167 167 167 163 163 163 159 159 159 154 154 154
149 149 149 144 144 144 138 138 138 132 132 132 126 0 0 120 0 0 113 0
0 106 0 0 98 0 0 90 0 0 82 0 0 73 0 0 63 0 0 53 0 0 42 0 0 30 0 0 26 0
0 26 0 0 26 0 0 26 0 0 115 0 0 114 0 0 114 0 0 114 0 0 113 0 0 113 0 0
113 0 0 112 112 112 112 112 112 112 112 112 112 112 112 111 111 111
111 111 111 111 111 111 110 110 110 110 0 0 110 0 0 109 0 0 109 0 0
109 0 0 109 0 0 108 0 0 108 108 108 108 108 108 107 107 107 107 107
107 107 107 107 106 106 106 106 106 106 106 106 106 106 0 0 105 0 0
105 0 0 105 0 0 104 0 0 104 0 0 104 0 0 103 0 0 103 103 103 103 103
103 103 103 103 102 102 102
132 132 132 132 132 132 132 132 132 132 132 132 131 131 131 131 131
131 131 131 131 131 0 0 131 0 0 131 0 0 131 0 0 131 0 0 131 0 0 130 0
0 130 0 0 130 0 0 130 130 130 130 130 130 130 130 130 129 129 129 129
129 129 129 129 129 129 129 129 129 129 129 129 0 0 128 0 0 161 161
161 170 170 170 172 172 172 173 173 173 172 172 172 171 171 171 168
168 168 165 165 165 162 162 162 158 158 158 154 154 154 149 149 149
144 144 144 139 139 139 133 133 133 127 0 0 121 0 0 115 0 0 108 0 0
101 0 0 93 0 0 85 0 0 77 0 0 68 0 0 58 0 0 48 0 0 37 0 0 26 0 0 26 0 0
26 0 0 26 0 0 26 0 0 120 120 120 120 0 0 119 0 0 119 0 0 119 0 0 118 0
0 118 0 0 118 0 0 117 0 0 117 117 117 117 117 117 117 117 117 116 116
116 116 116 116 116 116 116 115 115 115 115 115 115 115 115 115 114 0
0 114 0 0 114 0 0 113 0 0 113 0 0 113 0 0 112 0 0 112 0 0 112 112 112
112 112 112 111 111 111 111 111 111 111 111 111 110 110 110 110 110
110 110 110 110 109 109 109 109 0 0 109 0 0 108 0 0 108 0 0 108 0 0
108 0 0 107 0 0
138 138 138 138 138 138 137 137 137 137 0 0 137 0 0 137 0 0 137 0 0
137 0 0 137 0 0 137 0 0 136 0 0 136 0 0 136 136 136 136 136 136 136
136 136 136 136 136 135 135 135 135 135 135 135 135 135 135 135 135
135 135 135 134 134 134 134 0 0 134 0 0 134 0 0 134 0 0 152 152 152
163 163 163 166 166 166 167 167 167 166 166 166 165 165 165 162 162
162 160 160 160 156 156 156 152 152 152 148 148 148 143 143 143 139
139 139 133 133 133 128 0 0 122 0 0 116 0 0 109 0 0 102 0 0 95 0 0 88
0 0 80 0 0 71 0 0 62 0 0 53 0 0 42 0 0 31 0 0 26 0 0 26 0 0 26 0 0 26
0 0 26 0 0 125 125 125 124 0 0 124 0 0 124 0 0 123 0 0 123 0 0 123 0 0
122 0 0 122 0 0 122 0 0 121 0 0 121 121 121 121 121 121 121 121 121
120 120 120 120 120 120 120 120 120 155 155 155 158 158 158 155 155
155 148 148 148 137 137 137 121 121 121 94 94 94 117 0 0 117 0 0 116 0
0 116 0 0 116 0 0 115 0 0 115 115 115 115 115 115 115 115 115 114 114
114 114 114 114 114 114 114 113 113 113 113 113 113 113 113 113 112 0
0 112 0 0 112 0 0
143 0 0 143 0 0 142 0 0 142 0 0 142 0 0 142 0 0 142 0 0 142 0 0 142
142 142 141 141 141 141 141 141 141 141 141 141 141 141 141 141 141
140 140 140 140 140 140 140 140 140 140 140 140 140 140 140 139 0 0
139 0 0 139 0 0 139 0 0 138 0 0 138 0 0 138 0 0 141 141 141 155 155
155 159 159 159 160 160 160 160 160 160 158 158 158 156 156 156 153
153 153 150 150 150 146 146 146 142 142 142 138 138 138 133 133 133
128 0 0 122 0 0 116 0 0 110 0 0 103 0 0 97 0 0 89 0 0 82 0 0 74 0 0 65
0 0 56 0 0 47 0 0 36 0 0 26 0 0 26 0 0 26 0 0 26 0 0 26 0 0 26 0 0 129
129 129 128 128 128 128 0 0 128 0 0 127 0 0 127 0 0 127 0 0 126 0 0
126 0 0 126 0 0 126 0 0 125 0 0 125 0 0 125 125 125 124 124 124 172
172 172 180 180 180 182 182 182 180 180 180 175 175 175 167 167 167
158 158 158 146 146 146 130 130 130 111 111 111 79 79 79 120 0 0 120 0
0 120 0 0 119 0 0 119 0 0 119 0 0 119 0 0 118 0 0 118 118 118 118 118
118 117 117 117 117 117 117 117 117 117 116 116 116 116 116 116 116
116 116
147 0 0 147 0 0 147 0 0 147 0 0 146 0 0 146 146 146 146 146 146 146
146 146 146 146 146 146 146 146 145 145 145 145 145 145 145 145 145
145 145 145 144 144 144 144 144 144 144 0 0 144 0 0 144 0 0 143 0 0
143 0 0 143 0 0 143 0 0 142 0 0 142 0 0 142 0 0 142 0 0 146 146 146
151 151 151 153 153 153 153 153 153 152 152 152 150 150 150 147 147
147 144 144 144 140 140 140 136 136 136 131 131 131 127 0 0 121 0 0
116 0 0 110 0 0 104 0 0 97 0 0 91 0 0 83 0 0 76 0 0 68 0 0 59 0 0 50 0
0 40 0 0 30 0 0 26 0 0 26 0 0 26 0 0 26 0 0 26 0 0 133 133 133 132 132
132 132 132 132 132 132 132 131 0 0 131 0 0 131 0 0 130 0 0 130 0 0
130 0 0 129 0 0 129 0 0 129 0 0 128 0 0 152 152 152 183 183 183 192
192 192 194 194 194 193 193 193 190 190 190 184 184 184 177 177 177
168 168 168 157 157 157 144 144 144 128 128 128 108 108 108 79 79 79
124 0 0 123 0 0 123 0 0 123 0 0 122 0 0 122 0 0 122 0 0 121 0 0 121 0
0 121 0 0 121 121 121 120 120 120 120 120 120 120 120 120 119 119 119
151 0 0 151 151 151 150 150 150 150 150 150 150 150 150 150 150 150
150 150 150 149 149 149 149 149 149 149 149 149 149 149 149 149 149
149 148 148 148 148 0 0 148 0 0 148 0 0 147 0 0 147 0 0 147 0 0 147 0
0 146 0 0 146 0 0 146 0 0 146 0 0 145 0 0 145 145 145 145 145 145 134
134 134 142 142 142 145 145 145 145 145 145 144 144 144 143 143 143
140 140 140 137 137 137 133 133 133 129 129 129 125 0 0 120 0 0 115 0
0 109 0 0 104 0 0 97 0 0 91 0 0 84 0 0 77 0 0 69 0 0 61 0 0 52 0 0 43
0 0 33 0 0 26 0 0 26 0 0 26 0 0 26 0 0 26 0 0 26 0 0 136 136 136 135
135 135 135 135 135 135 135 135 135 135 135 134 0 0 134 0 0 134 0 0
133 0 0 133 0 0 133 0 0 132 0 0 132 0 0 132 0 0 185 0 0 196 0 0 200
200 200 201 201 201 199 199 199 195 195 195 189 189 189 182 182 182
173 173 173 163 163 163 150 150 150 136 136 136 119 119 119 97 97 97
68 68 68 127 127 127 126 0 0 126 0 0 126 0 0 125 0 0 125 0 0 125 0 0
124 0 0 124 0 0 124 0 0 123 0 0 123 0 0 123 0 0 123 123 123
154 154 154 154 154 154 154 154 154 153 153 153 153 153 153 153 153
153 153 153 153 153 153 153 152 152 152 152 152 152 152 0 0 152 0 0
151 0 0 151 0 0 151 0 0 151 0 0 150 0 0 150 0 0 150 0 0 150 0 0 149 0
0 149 0 0 149 0 0 149 149 149 148 148 148 148 148 148 148 148 148 118
118 118 132 132 132 136 136 136 137 137 137 136 136 136 135 135 135
132 132 132 130 130 130 126 126 126 122 0 0 118 0 0 113 0 0 108 0 0
103 0 0 97 0 0 91 0 0 84 0 0 77 0 0 70 0 0 62 0 0 54 0 0 45 0 0 36 0 0
26 0 0 26 0 0 26 0 0 26 0 0 26 0 0 26 0 0 26 0 0 139 139 139 138 138
138 138 138 138 138 138 138 137 137 137 137 137 137 137 0 0 136 0 0
136 0 0 136 0 0 135 0 0 135 0 0 135 0 0 179 0 0 195 0 0 201 0 0 204 1
1 203 203 203 201 201 201 197 197 197 191 191 191 184 184 184 175 175
175 165 165 165 153 153 153 140 140 140 124 124 124 105 105 105 82 82
82 47 47 47 129 129 129 129 129 129 129 129 129 128 0 0 128 0 0 128 0
0 127 0 0 127 0 0 127 0 0 126 0 0 126 0 0 126 0 0 125 0 0
157 157 157 157 157 157 156 156 156 156 156 156 156 156 156 156 156
156 156 156 156 155 0 0 155 0 0 155 0 0 155 0 0 154 0 0 154 0 0 154 0
0 154 0 0 153 0 0 153 0 0 153 0 0 153 0 0 152 0 0 152 0 0 152 0 0 151
151 151 151 151 151 151 151 151 151 151 151 150 150 150 150 150 150
119 119 119 125 125 125 127 127 127 127 127 127 126 126 126 124 124
124 122 122 122 118 0 0 115 0 0 110 0 0 106 0 0 101 0 0 95 0 0 89 0 0
83 0 0 77 0 0 70 0 0 62 0 0 54 0 0 46 0 0 37 0 0 28 0 0 26 0 0 26 0 0
26 0 0 26 0 0 26 0 0 26 0 0 141 141 141 141 141 141 141 141 141 140
140 140 140 140 140 140 140 140 26 26 26 26 26 26 26 0 0 26 0 0 26 0 0
26 0 0 26 0 0 158 0 0 187 0 0 198 0 0 203 1 1 204 1 1 203 1 1 201 201
201 196 196 196 190 190 190 183 183 183 175 175 175 165 165 165 154
154 154 141 141 141 126 126 126 109 109 109 88 88 88 60 60 60 26 26 26
131 131 131 131 131 131 131 131 131 131 131 131 130 130 130 130 0 0
130 0 0 129 0 0 129 0 0 129 0 0 128 0 0 128 0 0
159 159 159 159 159 159 159 159 159 159 159 159 158 158 158 158 0 0
158 0 0 158 0 0 157 0 0 157 0 0 157 0 0 157 0 0 156 0 0 156 0 0 156 0
0 156 0 0 155 0 0 155 0 0 155 0 0 155 0 0 154 154 154 154 154 154 154
154 154 153 153 153 153 153 153 153 153 153 153 153 153 152 152 152 98
98 98 112 112 112 117 117 117 118 118 118 117 117 117 116 116 116 113
0 0 110 0 0 106 0 0 102 0 0 98 0 0 93 0 0 87 0 0 81 0 0 75 0 0 69 0 0
62 0 0 54 0 0 46 0 0 38 0 0 29 0 0 26 0 0 26 0 0 26 0 0 26 0 0 26 0 0
26 0 0 26 0 0 26 26 26 26 26 26 26 26 26 26 26 26 26 26 26 26 26 26 26
26 26 26 26 26 26 26 26 26 0 0 26 0 0 26 0 0 26 0 0 170 0 0 189 0 0
198 0 0 202 1 1 203 1 1 201 1 1 204 6 6 197 197 197 188 188 188 181
181 181 173 173 173 163 163 163 152 152 152 140 140 140 125 125 125
109 109 109 89 89 89 65 65 65 29 29 29 134 134 134 134 134 134 133 133
133 133 133 133 133 133 133 132 132 132 132 132 132 132 0 0 131 0 0
131 0 0 131 0 0 131 0 0
161 161 161 161 161 161 161 0 0 161 0 0 160 0 0 160 0 0 160 0 0 160 0
0 159 0 0 159 0 0 159 0 0 159 0 0 158 0 0 158 0 0 158 0 0 158 0 0 157
0 0 157 0 0 158 158 158 149 149 149 133 133 133 111 111 111 78 78 78
155 155 155 155 155 155 155 155 155 155 155 155 154 154 154 154 154
154 95 95 95 104 104 104 106 106 106 107 107 107 106 0 0 104 0 0 101 0
0 97 0 0 93 0 0 89 0 0 84 0 0 79 0 0 73 0 0 67 0 0 60 0 0 53 0 0 45 0
0 37 0 0 29 0 0 26 0 0 26 0 0 26 0 0 26 0 0 26 0 0 26 0 0 26 0 0 26 26
26 26 26 26 26 26 26 26 26 26 26 26 26 26 26 26 26 26 26 26 26 26 26
26 26 26 26 26 26 26 26 26 0 0 26 0 0 26 0 0 171 0 0 187 0 0 195 0 0
198 1 1 199 1 1 198 1 1 225 31 31 198 8 8 184 184 184 177 177 177 169
169 169 160 160 160 149 149 149 137 137 137 123 123 123 107 107 107 88
88 88 65 65 65 34 34 34 136 136 136 136 136 136 135 135 135 135 135
135 135 135 135 135 135 135 134 134 134 134 134 134 134 134 134 133
133 133 133 0 0 133 0 0
163 0 0 163 0 0 163 0 0 162 0 0 162 0 0 162 0 0 162 0 0 161 0 0 161 0
0 161 0 0 161 0 0 160 0 0 160 0 0 160 0 0 160 0 0 159 0 0 188 188 188
186 186 186 175 175 175 161 161 161 143 143 143 123 123 123 99 99 99
70 70 70 26 26 26 157 157 157 156 156 156 156 156 156 156 156 156 155
155 155 87 87 87 93 93 93 95 0 0 95 0 0 93 0 0 91 0 0 88 0 0 84 0 0 80
0 0 75 0 0 69 0 0 64 0 0 57 0 0 51 0 0 44 0 0 36 0 0 28 0 0 26 0 0 26
0 0 26 0 0 26 0 0 26 0 0 26 0 0 26 0 0 26 26 26 26 26 26 26 26 26 26
26 26 26 26 26 26 26 26 26 26 26 26 26 26 26 26 26 26 26 26 26 26 26
26 26 26 26 26 26 26 0 0 26 0 0 167 0 0 182 0 0 190 0 0 193 1 1 194 1
1 192 1 1 189 1 1 185 1 1 179 1 1 172 1 1 164 164 164 155 155 155 144
144 144 132 132 132 119 119 119 103 103 103 85 85 85 63 63 63 34 34 34
138 138 138 138 138 138 137 137 137 137 137 137 137 137 137 137 137
137 136 136 136 136 136 136 136 136 136 135 135 135 135 135 135 135
135 135
165 0 0 164 0 0 164 0 0 164 0 0 164 0 0 164 0 0 163 0 0 163 0 0 163 0
0 162 0 0 162 0 0 162 0 0 162 0 0 161 0 0 161 161 161 200 200 200 198
198 198 189 189 189 176 176 176 161 161 161 143 143 143 124 124 124
101 101 101 75 75 75 44 44 44 26 26 26 158 158 158 158 158 158 157 157
157 157 157 157 157 157 157 75 0 0 80 0 0 82 0 0 81 0 0 79 0 0 77 0 0
73 0 0 69 0 0 64 0 0 59 0 0 53 0 0 47 0 0 40 0 0 33 0 0 26 0 0 26 0 0
26 0 0 26 0 0 26 0 0 26 0 0 26 0 0 26 0 0 26 26 26 26 26 26 26 26 26
26 26 26 26 26 26 26 26 26 26 26 26 26 26 26 26 26 26 26 26 26 26 26
26 26 26 26 26 26 26 26 26 26 26 26 26 26 0 0 160 0 0 175 0 0 182 0 0
186 1 1 187 1 1 185 1 1 182 1 1 178 1 1 172 1 1 166 1 1 158 1 1 148
148 148 138 138 138 126 126 126 113 113 113 97 97 97 79 79 79 58 58 58
29 29 29 26 26 26 140 140 140 139 139 139 139 139 139 139 139 139 138
138 138 138 138 138 138 138 138 138 138 138 137 137 137 137 137 137
137 137 137
166 0 0 166 0 0 166 0 0 165 0 0 165 0 0 165 0 0 165 0 0 164 0 0 164 0
0 164 0 0 164 0 0 163 0 0 163 163 163 163 163 163 200 0 0 204 204 204
197 197 197 186 186 186 173 173 173 157 157 157 139 139 139 120 120
120 98 98 98 73 73 73 45 45 45 26 26 26 159 159 159 159 159 159 159
159 159 158 158 158 158 158 158 158 0 0 60 0 0 65 0 0 67 0 0 66 0 0 64
0 0 61 0 0 57 0 0 53 0 0 48 0 0 42 0 0 36 0 0 29 0 0 26 0 0 26 0 0 26
0 0 26 0 0 26 0 0 26 0 0 26 0 0 26 0 0 26 26 26 26 26 26 26 26 26 26
26 26 26 26 26 26 26 26 26 26 26 26 26 26 26 26 26 26 26 26 26 26 26
26 26 26 26 26 26 26 26 26 26 26 26 26 26 26 26 26 26 149 0 0 165 0 0
173 0 0 177 0 0 178 1 1 177 1 1 174 1 1 170 1 1 165 1 1 158 1 1 150 0
0 141 0 0 130 130 130 119 119 119 105 105 105 90 90 90 72 72 72 50 50
50 26 26 26 26 26 26 141 141 141 141 141 141 141 141 141 140 140 140
140 140 140 140 140 140 140 140 140 139 139 139 139 139 139 139 139
139 138 138 138
167 0 0 167 0 0 167 0 0 167 0 0 166 0 0 166 0 0 166 0 0 166 0 0 165 0
0 165 0 0 165 165 165 165 165 165 164 164 164 164 164 164 203 0 0 200
200 200 191 191 191 194 194 194 166 166 166 150 150 150 133 133 133
113 113 113 91 91 91 67 67 67 40 40 40 26 26 26 26 26 26 160 160 160
160 160 160 160 160 160 159 0 0 159 0 0 159 0 0 39 0 0 48 0 0 49 0 0
49 0 0 47 0 0 43 0 0 39 0 0 34 0 0 29 0 0 26 0 0 26 0 0 26 0 0 26 0 0
26 0 0 26 0 0 26 0 0 26 0 0 26 0 0 26 26 26 26 26 26 26 26 26 26 26 26
26 26 26 26 26 26 26 26 26 26 26 26 26 26 26 26 26 26 26 26 26 26 26
26 26 26 26 26 26 26 26 26 26 26 26 26 26 26 26 26 26 26 133 0 0 153 0
0 162 0 0 166 0 0 168 0 0 167 1 1 165 1 1 161 1 1 155 0 0 149 0 0 141
0 0 132 0 0 121 0 0 110 110 110 96 96 96 81 81 81 62 62 62 40 40 40 26
26 26 143 0 0 143 0 0 143 143 143 142 142 142 142 142 142 142 142 142
141 141 141 141 141 141 141 141 141 141 141 141 140 140 140 140 140
140
168 0 0 168 0 0 168 0 0 168 0 0 167 0 0 167 0 0 167 0 0 167 0 0 166
166 166 166 166 166 166 166 166 166 166 166 165 165 165 189 0 0 197 0
0 192 192 192 183 183 183 174 174 174 157 157 157 141 141 141 124 124
124 104 104 104 83 83 83 59 59 59 32 32 32 26 26 26 26 26 26 161 161
161 161 161 161 161 0 0 161 0 0 160 0 0 160 0 0 160 0 0 159 0 0 26 0 0
28 0 0 28 0 0 26 0 0 26 0 0 26 0 0 26 0 0 26 0 0 26 0 0 26 0 0 26 0 0
26 0 0 26 0 0 26 0 0 26 0 0 26 26 26 26 26 26 26 26 26 26 26 26 26 26
26 26 26 26 26 26 26 26 26 26 26 26 26 26 26 26 26 26 26 26 26 26 26
26 26 26 26 26 26 26 26 26 26 26 26 26 26 26 26 26 150 150 150 109 0 0
137 0 0 148 0 0 154 0 0 156 0 0 155 0 0 153 0 0 150 0 0 144 0 0 138 0
0 130 0 0 121 0 0 111 0 0 99 0 0 85 85 85 69 69 69 51 51 51 28 28 28
26 26 26 26 0 0 26 0 0 144 0 0 144 144 144 143 143 143 143 143 143 143
143 143 143 143 143 142 142 142 142 142 142 142 142 142 142 142 142
169 0 0 169 0 0 169 0 0 169 0 0 168 0 0 168 0 0 168 0 0 168 168 168
167 167 167 167 167 167 167 167 167 167 167 167 166 166 166 184 0 0
188 0 0 182 1 1 173 173 173 161 161 161 146 146 146 130 130 130 113
113 113 93 93 93 72 72 72 48 48 48 26 26 26 26 26 26 26 26 26 162 162
162 162 0 0 162 0 0 162 0 0 161 0 0 161 0 0 161 0 0 161 0 0 160 0 0 26
0 0 26 0 0 26 0 0 26 0 0 26 0 0 26 0 0 26 0 0 26 0 0 26 0 0 26 0 0 26
0 0 26 0 0 26 0 0 26 0 0 26 26 26 26 26 26 26 26 26 26 26 26 26 26 26
26 26 26 26 26 26 26 26 26 26 26 26 26 26 26 26 26 26 26 26 26 26 26
26 153 153 153 152 152 152 152 152 152 152 152 152 152 152 152 151 151
151 151 151 151 116 0 0 131 0 0 138 0 0 142 0 0 142 0 0 140 0 0 137 0
0 132 0 0 126 0 0 118 0 0 109 0 0 98 0 0 86 0 0 72 72 72 56 56 56 36
36 36 26 26 26 26 26 26 26 0 0 26 0 0 26 0 0 26 0 0 26 0 0 26 26 26 26
26 26 144 144 144 144 144 144 143 143 143 143 143 143 143 143 143
170 0 0 170 0 0 170 0 0 170 0 0 169 0 0 169 169 169 169 169 169 169
169 169 168 168 168 168 168 168 168 168 168 168 168 168 167 167 167
172 0 0 176 0 0 170 1 1 160 1 1 148 148 148 134 134 134 118 118 118
100 100 100 80 80 80 59 59 59 35 35 35 26 26 26 26 26 26 26 26 26 163
0 0 163 0 0 163 0 0 163 0 0 162 0 0 162 0 0 162 0 0 161 0 0 161 0 0
161 0 0 161 0 0 26 0 0 26 0 0 26 0 0 26 0 0 26 0 0 26 0 0 26 0 0 26 0
0 26 0 0 26 0 0 26 0 0 26 0 0 26 26 26 26 26 26 26 26 26 26 26 26 26
26 26 26 26 26 26 26 26 26 26 26 155 155 155 155 155 155 155 155 155
154 154 154 154 154 154 154 154 154 153 153 153 153 153 153 153 153
153 153 153 153 152 152 152 152 152 152 80 0 0 109 0 0 120 0 0 125 0 0
126 0 0 125 0 0 122 0 0 117 0 0 111 0 0 104 0 0 95 0 0 84 0 0 72 0 0
57 0 0 40 40 40 26 26 26 26 26 26 26 0 0 26 0 0 26 0 0 26 0 0 26 0 0
26 0 0 26 0 0 26 0 0 26 26 26 26 26 26 145 145 145 144 144 144 144 144
144
171 0 0 171 0 0 171 0 0 170 170 170 170 170 170 170 170 170 170 170
170 169 169 169 169 169 169 169 169 169 169 169 169 168 168 168 168
168 168 153 0 0 160 0 0 155 0 0 146 1 1 134 0 0 119 119 119 103 103
103 86 86 86 66 66 66 44 44 44 26 26 26 26 26 26 26 26 26 26 26 26 164
0 0 164 0 0 164 0 0 163 0 0 163 0 0 163 0 0 26 0 0 162 0 0 162 0 0 162
0 0 162 0 0 161 0 0 161 0 0 161 0 0 161 0 0 160 0 0 160 0 0 160 0 0
159 0 0 159 0 0 159 0 0 159 0 0 158 0 0 158 158 158 158 158 158 158
158 158 157 157 157 157 157 157 157 157 157 157 157 157 156 156 156
156 156 156 156 156 156 156 156 156 155 155 155 155 155 155 155 155
155 154 154 154 154 154 154 154 154 154 154 154 154 153 153 153 153
153 153 153 153 153 75 0 0 95 0 0 104 0 0 107 0 0 107 0 0 105 0 0 101
0 0 95 0 0 87 0 0 78 0 0 67 0 0 54 0 0 39 0 0 26 0 0 26 26 26 26 26 26
26 0 0 26 0 0 26 0 0 26 0 0 26 0 0 26 0 0 26 0 0 26 0 0 26 0 0 26 0 0
146 146 146 146 146 146 145 145 145
172 0 0 171 171 171 171 171 171 171 171 171 171 171 171 170 170 170
170 170 170 170 170 170 170 170 170 170 170 170 169 169 169 169 169
169 169 169 169 169 169 169 141 0 0 138 0 0 129 0 0 117 0 0 103 0 0 87
87 87 69 69 69 49 49 49 27 27 27 26 26 26 26 26 26 26 26 26 26 0 0 26
0 0 26 0 0 26 0 0 26 0 0 26 0 0 26 0 0 26 0 0 26 0 0 26 0 0 26 0 0 162
0 0 162 0 0 162 0 0 162 0 0 161 0 0 161 0 0 161 0 0 161 0 0 160 0 0
160 0 0 160 0 0 160 0 0 159 0 0 159 159 159 159 159 159 159 159 159
158 158 158 158 158 158 158 158 158 157 157 157 157 157 157 157 157
157 157 157 157 156 156 156 156 156 156 156 156 156 156 156 156 155
155 155 155 155 155 155 155 155 155 155 155 154 154 154 154 154 154
154 154 154 154 154 154 56 0 0 75 0 0 82 0 0 85 0 0 84 0 0 80 0 0 75 0
0 67 0 0 58 0 0 46 0 0 32 0 0 26 0 0 26 0 0 26 0 0 26 0 0 26 0 0 26 0
0 26 0 0 26 0 0 26 0 0 26 0 0 26 0 0 26 0 0 26 0 0 26 0 0 147 0 0 147
0 0 147 147 147
172 172 172 172 172 172 172 172 172 172 172 172 171 171 171 171 171
171 171 171 171 171 171 171 170 170 170 170 170 170 170 170 170 170
170 170 169 169 169 169 169 169 114 0 0 116 0 0 109 0 0 98 0 0 84 0 0
68 0 0 50 50 50 29 29 29 26 26 26 26 26 26 26 26 26 26 26 26 26 0 0 26
0 0 26 0 0 26 0 0 26 0 0 26 0 0 26 0 0 26 0 0 26 0 0 26 0 0 163 0 0
163 0 0 163 0 0 163 0 0 162 0 0 162 0 0 162 0 0 162 0 0 161 0 0 161 0
0 161 0 0 161 0 0 160 0 0 160 0 0 160 160 160 160 160 160 159 159 159
159 159 159 159 159 159 159 159 159 158 158 158 158 158 158 158 158
158 158 158 158 157 157 157 157 157 157 157 157 157 157 157 157 156
156 156 156 156 156 156 156 156 156 156 156 155 155 155 155 155 155
155 155 155 155 155 155 154 154 154 154 154 154 47 0 0 54 0 0 56 0 0
54 0 0 49 0 0 42 0 0 32 0 0 26 0 0 26 0 0 26 0 0 26 0 0 26 0 0 26 0 0
26 0 0 26 0 0 26 0 0 26 0 0 26 0 0 26 0 0 26 0 0 26 0 0 149 0 0 148 0
0 148 0 0 148 0 0 148 0 0
173 173 173 173 173 173 172 172 172 172 172 172 172 172 172 172 172
172 171 171 171 171 171 171 171 171 171 171 171 171 170 170 170 170
170 170 170 170 170 170 170 170 170 170 170 87 0 0 84 0 0 75 0 0 61 0
0 46 0 0 27 0 0 26 0 0 26 0 0 26 26 26 26 26 26 26 0 0 26 0 0 26 0 0
26 0 0 26 0 0 26 0 0 26 0 0 26 0 0 26 0 0 165 0 0 164 0 0 164 0 0 164
0 0 164 0 0 163 0 0 163 0 0 163 0 0 163 0 0 162 0 0 162 0 0 162 0 0
162 0 0 161 0 0 161 0 0 161 0 0 161 161 161 160 160 160 160 160 160
160 160 160 160 160 160 159 159 159 159 159 159 159 159 159 159 159
159 158 158 158 158 158 158 158 158 158 158 158 158 157 157 157 157
157 157 157 157 157 157 157 157 156 156 156 156 156 156 156 156 156
156 156 156 155 155 155 155 155 155 155 155 155 155 155 155 26 26 26
26 0 0 26 0 0 26 0 0 26 0 0 26 0 0 26 0 0 26 0 0 26 0 0 26 0 0 26 0 0
26 0 0 26 0 0 26 0 0 26 0 0 26 0 0 26 0 0 26 0 0 150 0 0 150 0 0 150 0
0 149 0 0 149 0 0 149 0 0 149 0 0
173 173 173 173 173 173 173 173 173 173 173 173 172 172 172 172 172
172 172 172 172 172 172 172 171 171 171 171 171 171 171 171 171 171
171 171 171 171 171 170 170 170 170 170 170 170 170 170 45 0 0 43 0 0
32 0 0 26 0 0 26 0 0 26 0 0 26 0 0 26 0 0 26 0 0 26 0 0 26 0 0 26 0 0
26 0 0 26 0 0 26 0 0 166 0 0 166 0 0 165 0 0 165 0 0 165 0 0 165 0 0
164 0 0 164 0 0 164 0 0 164 0 0 164 0 0 163 0 0 163 0 0 163 0 0 163 0
0 162 0 0 162 0 0 162 0 0 162 0 0 161 161 161 161 161 161 161 161 161
161 161 161 160 160 160 160 160 160 160 160 160 160 160 160 159 159
159 159 159 159 159 159 159 159 159 159 158 158 158 158 158 158 158
158 158 158 158 158 157 157 157 157 157 157 157 157 157 157 157 157
156 156 156 156 156 156 156 156 156 156 156 156 155 155 155 155 155
155 155 155 155 155 0 0 26 0 0 26 0 0 26 0 0 26 0 0 26 0 0 26 0 0 26 0
0 26 0 0 26 0 0 26 0 0 152 0 0 152 0 0 152 0 0 151 0 0 151 0 0 151 0 0
151 0 0 150 0 0 150 0 0 150 0 0 150 0 0 150 0 0
174 174 174 174 174 174 173 173 173 173 173 173 173 173 173 173 173
173 172 172 172 172 172 172 172 172 172 172 172 172 172 172 172 171
171 171 171 171 171 171 171 171 171 171 171 170 170 170 170 170 170
170 170 170 26 26 26 26 26 26 26 26 26 26 26 26 26 0 0 26 0 0 26 0 0
26 0 0 26 0 0 167 0 0 167 0 0 167 0 0 167 0 0 167 0 0 166 0 0 166 0 0
166 0 0 166 0 0 165 0 0 165 0 0 165 0 0 165 0 0 164 0 0 164 0 0 164 0
0 164 0 0 163 0 0 163 0 0 163 0 0 163 0 0 162 0 0 162 0 0 162 162 162
162 162 162 161 161 161 161 161 161 161 161 161 161 161 161 161 161
161 160 160 160 160 160 160 160 160 160 160 160 160 159 159 159 159
159 159 159 159 159 159 159 159 158 158 158 158 158 158 158 158 158
158 158 158 157 157 157 157 157 157 157 157 157 157 157 157 156 156
156 156 156 156 156 156 156 156 156 156 156 156 156 155 0 0 155 0 0
155 0 0 155 0 0 154 0 0 154 0 0 154 0 0 154 0 0 153 0 0 153 0 0 153 0
0 153 0 0 153 0 0 152 0 0 152 0 0 152 0 0 152 0 0 151 0 0 151 0 0 151
0 0 151 0 0 150 0 0
174 174 174 174 174 174 174 174 174 174 174 174 173 173 173 173 173
173 173 173 173 173 173 173 172 172 172 172 172 172 172 172 172 172
172 172 171 171 171 171 171 171 171 171 171 171 171 171 171 171 171
170 170 170 170 170 170 170 170 170 170 170 170 169 0 0 169 0 0 169 0
0 169 0 0 168 0 0 168 0 0 168 0 0 168 0 0 168 0 0 167 0 0 167 0 0 167
0 0 167 0 0 166 0 0 166 0 0 166 0 0 166 0 0 165 0 0 165 0 0 165 0 0
165 0 0 164 0 0 164 0 0 164 0 0 164 0 0 164 0 0 163 0 0 163 0 0 163 0
0 163 163 163 162 162 162 162 162 162 162 162 162 162 162 162 161 161
161 161 161 161 161 161 161 161 161 161 160 160 160 160 160 160 160
160 160 160 160 160 160 160 160 159 159 159 159 159 159 159 159 159
159 159 159 158 158 158 158 158 158 158 158 158 158 158 158 157 157
157 157 157 157 157 157 157 157 157 157 157 157 157 156 156 156 156
156 156 156 0 0 156 0 0 155 0 0 155 0 0 155 0 0 155 0 0 154 0 0 154 0
0 154 0 0 154 0 0 154 0 0 153 0 0 153 0 0 153 0 0 153 0 0 152 0 0 152
0 0 152 0 0 152 0 0 152 0 0 151 0 0
175 175 175 174 174 174 174 174 174 174 174 174 174 174 174 173 173
173 173 173 173 173 173 173 173 173 173 173 173 173 172 172 172 172
172 172 172 172 172 172 172 172 171 171 171 171 171 171 171 171 171
171 171 171 171 171 171 170 170 170 170 0 0 170 0 0 170 0 0 169 0 0
169 0 0 169 0 0 169 0 0 168 0 0 168 0 0 168 0 0 168 0 0 168 0 0 167 0
0 167 0 0 167 0 0 167 0 0 166 0 0 166 0 0 166 0 0 166 0 0 165 0 0 165
0 0 165 0 0 165 0 0 165 0 0 164 0 0 164 0 0 164 0 0 164 0 0 163 0 0
163 163 163 163 163 163 163 163 163 162 162 162 162 162 162 162 162
162 162 162 162 162 162 162 161 161 161 161 161 161 161 161 161 161
161 161 160 160 160 160 160 160 160 160 160 160 160 160 159 159 159
159 159 159 159 159 159 159 159 159 159 159 159 158 158 158 158 158
158 158 158 158 158 158 158 157 157 157 157 157 157 157 157 157 157
157 157 157 157 157 156 0 0 156 0 0 156 0 0 156 0 0 155 0 0 155 0 0
155 0 0 155 0 0 155 0 0 154 0 0 154 0 0 154 0 0 154 0 0 153 0 0 153 0
0 153 0 0 153 0 0 153 0 0 152 0 0 152 0 0
175 175 175 175 175 175 175 175 175 174 174 174 174 174 174 174 174
174 174 174 174 173 173 173 173 173 173 173 173 173 173 173 173 173
173 173 172 172 172 172 172 172 172 172 172 172 172 172 171 171 171
171 171 171 171 171 171 171 0 0 170 0 0 170 0 0 170 0 0 170 0 0 170 0
0 169 0 0 169 0 0 169 0 0 169 0 0 168 0 0 168 0 0 168 0 0 168 0 0 168
0 0 167 0 0 167 0 0 167 0 0 167 0 0 166 0 0 166 0 0 166 0 0 166 0 0
166 0 0 165 0 0 165 0 0 165 0 0 165 0 0 164 0 0 164 0 0 164 0 0 164
164 164 163 163 163 163 163 163 163 163 163 163 163 163 163 163 163
162 162 162 162 162 162 162 162 162 162 162 162 161 161 161 161 161
161 161 161 161 161 161 161 161 161 161 160 160 160 160 160 160 160
160 160 160 160 160 159 159 159 159 159 159 159 159 159 159 159 159
159 159 159 158 158 158 158 158 158 158 158 158 158 158 158 157 157
157 157 157 157 157 157 157 157 0 0 157 0 0 156 0 0 156 0 0 156 0 0
156 0 0 155 0 0 155 0 0 155 0 0 155 0 0 155 0 0 154 0 0 154 0 0 154 0
0 154 0 0 153 0 0 153 0 0 153 0 0 153 0 0
